PathFileType	4	(X/Y/Z)	Patient4_TMGait_0pt5_01_right_16.trc.trc
DataRate	CameraRate	NumFrames	NumMarkers	Units	OrigDataRate	OrigDataStartFrame	OrigNumFrames
75.675675675676	75.675675675676	4	33	mm	75.675675675676	36	       141
Frame#	Time	L.ASIS			Sacral			L.Shoulder			Chest			R.Shoulder			Neck			R.ASIS			R.Thigh.Superior			R.Thigh.Lateral			R.Thigh.Inferior			R.Patella			L.Thigh.Superior			L.Thigh.Lateral			L.Thigh.Inferior			L.Patella			L.Shank.Superior			L.Shank.Lateral			L.Shank.Inferior			R.Shank.Superior			R.Shank.Lateral			R.Shank.Inferior			R.Heel			R.Midfoot.Superior			R.Midfoot.Lateral			R.Toe			L.Heel			L.Midfoot.Lateral			L.Midfoot.Superior			L.Toe			L.Elbow			L.Wrist			R.Elbow			R.Wrist			
		X1	Y1	Z1	X2	Y2	Z2	X3	Y3	Z3	X4	Y4	Z4	X5	Y5	Z5	X6	Y6	Z6	X7	Y7	Z7	X8	Y8	Z8	X9	Y9	Z9	X10	Y10	Z10	X11	Y11	Z11	X12	Y12	Z12	X13	Y13	Z13	X14	Y14	Z14	X15	Y15	Z15	X16	Y16	Z16	X17	Y17	Z17	X18	Y18	Z18	X19	Y19	Z19	X20	Y20	Z20	X21	Y21	Z21	X22	Y22	Z22	X23	Y23	Z23	X24	Y24	Z24	X25	Y25	Z25	X26	Y26	Z26	X27	Y27	Z27	X28	Y28	Z28	X29	Y29	Z29	X30	Y30	Z30	X31	Y31	Z31	X32	Y32	Z32	X33	Y33	Z33	

36	21.212500000000	818.392891684026	958.208423961800	332.708653196765	603.371811950153	1002.065595184924	486.811829094046	777.040286050208	1430.076523784547	307.398123258120	874.037658353670	1362.933780514116	473.430475713389	781.269045613685	1437.287228108956	643.376324639134	771.456631303585	1493.349057641687	457.446549199626	830.204442535030	937.706370259424	606.823467643671	891.056538685105	749.606455542916	572.775820282837	822.764408066135	633.643275021366	634.300813703237	904.637250653045	588.359417893381	553.201626839060	915.810476578291	498.214658443536	560.131336286339	839.337770572326	733.823577982094	353.507941115839	735.323211431568	629.622521528853	293.253300862033	810.493607257096	538.116041206954	350.743568299070	798.391361310269	456.989083051396	351.608790358591	738.499828632574	398.759565023466	346.400329077644	606.664335669979	334.844863036095	296.259215980946	609.976422343069	207.900044760401	358.668943816827	890.701298956727	408.025420662431	568.547222877958	824.810934319844	302.298943755904	632.160735473365	869.315715055574	208.323397713514	570.282494942284	740.295078902119	42.404375748615	545.821733824798	911.568807560334	97.962294370927	575.463827535362	825.895372934606	36.491312974903	618.203657336071	1032.970587211149	47.191099239862	600.482142414258	432.293563105124	104.697144403084	397.562205859498	500.373905696821	71.086569641373	320.972690710995	598.154068291665	107.704259454307	342.295149467447	702.226387230048	34.383616734076	322.957833156044	780.458690918587	1077.321182407608	183.303394198991	945.203606661939	874.383312112971	168.198907078627	684.200375832990	1105.174681854240	754.857049909827	745.347153380087	850.578419443089	759.949208877509	
37	21.225714285714	817.747023607856	958.974877865887	334.932826136546	603.839577015969	1003.135571730361	490.657095519057	776.460922535779	1431.226132797895	310.603437581815	874.877156833913	1363.630307980203	475.644003940037	783.781816925006	1437.781908001431	646.473179356160	772.123728298671	1494.177042726705	460.880797082277	831.374706161697	938.408993288058	608.844032359441	890.008010622669	748.537749343391	575.143346308962	820.118848470002	633.678326576589	636.294405102644	900.992319378571	587.593920821418	554.646037043622	911.099461118148	497.574979429314	561.081690015985	844.548240113368	736.284202739927	356.254936239248	745.212276348375	629.228944344629	295.239361501569	823.446566012750	539.391486421784	352.704352867247	812.418779452141	456.675219268084	352.497126752439	749.872657412331	398.843996490075	347.394600137678	615.726882958949	340.383128790970	296.868667217109	614.003498829600	213.201882446243	358.393607022554	885.729528864138	407.641694033809	569.499425598382	819.682005980847	302.020057731270	632.945721169259	863.476575748985	208.078894956433	570.633786569409	733.803956465287	42.389554695503	545.955684187308	905.110211055326	97.891269672255	575.590998575680	819.402479627932	36.467716567465	618.345460647995	1026.526950466021	46.960224010322	600.611585774129	432.240602315882	119.625391591085	396.448799534437	498.163557166481	81.366496585506	320.252624145502	597.773341991540	112.019311994340	341.410619015708	696.128819591386	33.356439107523	322.997206561004	776.200706123744	1077.890361047262	188.167900638906	928.324705367341	865.250678418428	171.439686319843	691.223884112881	1104.670584588509	759.618720150983	763.882643085982	853.164030104193	762.577728206329	
38	21.238928571429	816.935147423882	959.465178153832	337.051886726042	604.094205084732	1004.024074610982	494.396701276132	775.692419373838	1432.129167529814	313.646296562266	875.609369643897	1364.062103095102	477.633979883385	786.316988738998	1438.047403547636	649.401768488778	772.728998628749	1494.785408612926	464.157713855151	832.324515125284	938.964494517159	610.807288484582	888.755411745995	747.428297925831	577.586186028793	817.365393251915	633.629101601564	638.329163948484	897.339435207589	586.820617695411	556.207719820650	906.420193314895	496.919634311624	562.173886872062	849.855168121030	738.945510994485	359.105803681255	755.613268576781	629.068031083704	297.112116737689	836.790248979094	541.122943169003	354.764194707123	826.941809710813	456.879167926905	353.610114446276	761.968269170579	399.318949539280	348.447608685282	625.766788419284	346.331641223517	297.462315633125	618.985981270464	219.139738028956	358.187308192756	880.785230773836	407.220210756628	570.531134064445	814.556673232989	301.696991344543	633.782576907929	857.643819687863	207.799276541563	571.012574127669	727.284244541330	42.393237840414	546.069036251012	898.656416491290	97.784544083719	575.710639444260	812.875519046563	36.442822319813	618.470227092262	1020.070744741868	46.609265191038	600.726606079617	433.480479364185	135.623298047351	395.316446502868	497.040170735941	92.808697836075	319.509546222492	598.257498360778	117.146909898270	340.685802361560	690.507270569909	32.351979624426	323.081896914864	771.549306870620	1078.262767283315	192.830020286412	910.751331845258	856.906959887368	174.708121658701	698.599760219179	1104.059464318692	764.548848956361	783.029188205085	856.334238531743	765.160840184990	
39	21.252142857143	815.996861953780	959.684846838338	339.087353546355	604.141847845591	1004.706885347399	497.983525824791	774.765031370196	1432.769290976792	316.492655341507	876.214566574083	1364.232420384765	479.398918471600	788.794753667063	1438.095116949293	652.132228157015	773.277634856078	1495.173321287475	467.227269485491	833.049178277280	939.382218871575	612.743271987282	887.377264122720	746.337359561800	580.077317289264	814.630376567436	633.508032876037	640.390622240081	893.823977672320	586.059088191239	557.888716816319	901.913756909562	496.247714925436	563.419553103760	855.117231589001	741.805454406823	362.038707638473	766.256011414259	629.238999413117	298.859710482464	850.189418734276	543.365198884847	356.886208550240	841.658731517984	457.680634727746	354.898349756580	774.526892867769	400.247591209204	349.532615915361	636.536497667788	352.589134677549	298.062857405693	624.851110809751	225.568805869783	358.072824382335	875.983473855220	406.754284641948	571.637465983803	809.520788864832	301.343910946598	634.678116892075	851.863883866737	207.480226096190	571.422756906990	720.735735176975	42.418072036811	546.172149845906	892.199462999263	97.649744087747	575.832419140818	806.314254122411	36.419890087824	618.586503163727	1013.599958667655	46.160840840769	600.838948424490	436.050524256267	152.140417076807	394.226074130554	497.154714435442	105.025591995831	318.791584531661	599.699149904546	122.974380686527	340.155319638008	685.686129196030	31.473653462245	323.227817656456	766.420665644463	1078.424433603969	197.255988949977	892.646198818971	849.431078620758	178.012201400272	706.372467717333	1103.315209040450	769.555203958856	802.694993772535	860.089130476285	767.643472843950	
